# xmcd
#
# Track frame offsets:
#	150
#	14038
#	28493
#	45366
#	61236
#	74329
#	91044
#	106657
#	118970
#	135333
#	153953
#	165876
#	179169
#	192027
#	204802
#	217275
#	234575
#	249235
#	266655
#	282845
#	302210
#
# Disc length: 4257 seconds
#
# Revision: 1
# Processed by: cddbd v1.5.2PL0 Copyright (c) Steve Scherf et al.
# Submitted via: audiograbber 1.83.01
#
DISCID=25109f15
DTITLE=Various Artist - Halland's Country Hits Volume 1
DYEAR=1900
DGENRE=
TTITLE0=Tanya Tucker - It's Only Over For You
TTITLE1=Tanya Tucker - Just Another Love
TTITLE2=Tanya Tucker - Love Me Like You Used To
TTITLE3=Tanya Tucker - Oh What It Did To Me
TTITLE4=Tanya Tucker - One Love At A Time
TTITLE5=Tanya Tucker - Some Kind Of Trouble
TTITLE6=Tanya Tucker - Soon
TTITLE7=Tanya Tucker - Strong Enough To Bend
TTITLE8=Tanya Tucker - Tell Me About It
TTITLE9=Tanya Tucker - Two Sparrows In A Hurricane
TTITLE10=Tanya Tucker - Walking Shoes
TTITLE11=Tanya Tucker - (Without You) What Do I Do With Me
TTITLE12=Conway Twitty - I Couldn't See You Leavin'
TTITLE13=Clay Walker - Live Until I Die
TTITLE14=Clay Walker - What's It To You
TTITLE15=Steve Wariner - A Woman Loves
TTITLE16=Steve Wariner - If I Didn't Love You
TTITLE17=Steve Wariner - Leave Him Out Of This
TTITLE18=Steve Wariner - Tips Of My Fingers
TTITLE19=Steve Wariner - There For A While
TTITLE20=Steve Wariner - When I Could Come Home To You
EXTD=
EXTT0=
EXTT1=
EXTT2=
EXTT3=
EXTT4=
EXTT5=
EXTT6=
EXTT7=
EXTT8=
EXTT9=
EXTT10=
EXTT11=
EXTT12=
EXTT13=
EXTT14=
EXTT15=
EXTT16=
EXTT17=
EXTT18=
EXTT19=
EXTT20=
PLAYORDER=
